<?xml version="1.0" encoding="utf-8"?>
<!-- Generator: Adobe Illustrator 23.1.0, SVG Export Plug-In . SVG Version: 6.00 Build 0)  -->
<svg version="1.1" id="Layer_1" xmlns="http://www.w3.org/2000/svg" xmlns:xlink="http://www.w3.org/1999/xlink" x="0px" y="0px"
	 viewBox="0 0 200 75.7" style="enable-background:new 0 0 200 75.7;" xml:space="preserve">
<style type="text/css">
	.st0{fill:#019146;}
	.st1{fill:#04783D;}
	.st2{fill:#04783D;stroke:#03793E;stroke-width:0.2741;stroke-miterlimit:10;}
	.st3{fill:none;stroke:#019146;stroke-width:0.6438;stroke-miterlimit:10;}
	.st4{fill:#F0EFEF;}
	.st5{fill:#FFFFFF;}
	.st6{fill:#ECE82A;}
</style>
<path class="st0" d="M53.09,53.84c0.12-0.05,0.27-0.11,0.42-0.16c0.09-0.03,2.23-1.05,2.57-1.23c-0.06-0.11-0.11-0.2-0.12-0.22
	c0.08-0.24,0.14-0.43,0.2-0.61c0.01,0.02,0.02,0.04,0.04,0.07c0.13-0.09,0.77-0.75,0.77-1.09c0-0.09,0.15-0.18,0.25-0.28
	c0.33,0.35,0.6,0.7,0.64,1.18c0.05,0.51,0.13,1.03,0.17,1.54c0.01,0.18-0.05,0.37-0.08,0.55c-0.04,0.01-0.08,0.02-0.12,0.03
	c-0.1-0.14-0.35-0.03-0.38,0.16c-0.03,0.24-0.07,0.49-0.15,0.71c-0.09,0.25-0.23,0.49-0.33,0.74c-0.25,0.62-0.48,1.24-0.74,1.85
	c-0.46,1.07-0.95,2.12-1.39,3.19c-0.29,0.72-0.72,1.25-1.53,1.39c-0.03,0.01-0.07,0.01-0.1,0.02c-0.23,0.06-0.43,0.31-0.71,0.13
	c-0.4-0.26-0.81-0.51-0.9-1.03c-0.02-0.14-0.02-0.3,0.02-0.44c0.09-0.35,0.11-0.68-0.12-1c-0.17-0.24,0.02-0.8,0.25-1.08
	c0.34-0.41,0.94-1.69,0.92-1.87c-0.05-0.49-0.13-0.97-0.18-1.46c-0.01-0.1,0.06-0.21,0.11-0.31C52.75,54.39,52.91,54.13,53.09,53.84
	z"/>
<g>
	<g>
		<path class="st1" d="M77.14,15.29h5.08l10.09,23.35h-8.82l-1.42-3.29l-4.65,0.02l-1.32,3.27h-9.05L77.14,15.29z M81.43,33.92
			l-1.75-4.04l-1.66,4.04H81.43z"/>
		<path class="st1" d="M94.01,15.29h8.14v23.35h-8.14V15.29z"/>
		<path class="st1" d="M105.14,38.64V15.29h10.74c2.13,0,3.93,0.29,5.41,0.88c1.48,0.59,2.76,1.42,3.84,2.51
			c1.09,1.09,1.92,2.34,2.51,3.76c0.59,1.42,0.88,2.95,0.88,4.57c0,1.63-0.3,3.15-0.91,4.58c-0.61,1.42-1.47,2.66-2.57,3.73
			c-1.04,1.02-2.3,1.83-3.76,2.43c-1.46,0.6-3.27,0.9-5.42,0.9H105.14z M111.95,26.56c0,0.8,0.15,1.55,0.44,2.25
			c0.29,0.7,0.7,1.3,1.22,1.81c0.52,0.51,1.13,0.91,1.82,1.2c0.69,0.29,1.43,0.44,2.21,0.44c0.78,0,1.51-0.15,2.2-0.44
			c0.68-0.29,1.29-0.69,1.81-1.2c0.52-0.51,0.93-1.11,1.24-1.81c0.3-0.69,0.46-1.44,0.46-2.25c0-0.78-0.15-1.51-0.46-2.2
			c-0.3-0.68-0.72-1.29-1.24-1.81c-0.52-0.52-1.12-0.93-1.81-1.24c-0.68-0.3-1.42-0.46-2.2-0.46c-0.78,0-1.52,0.15-2.21,0.46
			c-0.69,0.3-1.3,0.72-1.82,1.24c-0.52,0.52-0.93,1.12-1.22,1.81C112.09,25.04,111.95,25.78,111.95,26.56z"/>
		<path class="st1" d="M130.73,15.29h10.52c1.43,0,2.71,0.23,3.83,0.68c1.12,0.46,2.06,1.06,2.83,1.82
			c0.77,0.76,1.36,1.64,1.76,2.65c0.4,1.01,0.6,2.08,0.6,3.21c0,1.37-0.28,2.64-0.85,3.81c-0.56,1.17-1.4,2.14-2.51,2.9l4.07,8.27
			h-4.62l-2.96-6.84c-0.65,0.13-1.37,0.2-2.15,0.2h-2.38v6.64h-8.14V15.29z M138.61,23.3c0,0.48,0.09,0.93,0.28,1.35
			c0.18,0.42,0.43,0.8,0.75,1.12c0.31,0.33,0.68,0.58,1.11,0.77c0.42,0.18,0.87,0.28,1.35,0.28s0.93-0.09,1.35-0.28
			c0.42-0.18,0.8-0.44,1.12-0.77c0.33-0.33,0.58-0.7,0.77-1.12c0.18-0.42,0.28-0.87,0.28-1.35c0-0.48-0.09-0.93-0.28-1.35
			c-0.18-0.42-0.44-0.79-0.77-1.11c-0.33-0.31-0.7-0.56-1.12-0.75c-0.42-0.18-0.87-0.28-1.35-0.28s-0.93,0.09-1.35,0.28
			c-0.42,0.18-0.79,0.43-1.11,0.75c-0.31,0.31-0.56,0.68-0.75,1.11C138.71,22.37,138.61,22.82,138.61,23.3z"/>
		<path class="st1" d="M166.62,27.46h-5.6v3.69h10.13v7.49h-18.27V15.29h18.27v7.16h-10.13v3.56l5.6-0.1V27.46z"/>
	</g>
</g>
<g>
	<g>
		<path class="st2" d="M72.79,53.92H72.3c-0.07,0-0.12-0.06-0.14-0.12l-0.53-1.89H69.5l-0.53,1.89c-0.02,0.07-0.08,0.12-0.15,0.12
			h-0.49c-0.08,0-0.14-0.06-0.14-0.13c0-0.02,0-0.04,0.01-0.06l1.52-5.35c0.14-0.5,0.53-0.62,0.84-0.62c0.3,0,0.69,0.11,0.83,0.62
			l1.52,5.36c0.01,0.02,0.01,0.04,0.01,0.06C72.93,53.87,72.88,53.92,72.79,53.92z M70.72,48.55c-0.02-0.09-0.07-0.15-0.16-0.15
			c-0.09,0-0.14,0.06-0.16,0.15l-0.75,2.71h1.82L70.72,48.55z"/>
		<path class="st2" d="M75.58,48.24h-0.39c-0.39,0-0.5,0.12-0.5,0.57v0.59h0.86c0.09,0,0.16,0.07,0.16,0.15v0.32
			c0,0.08-0.07,0.14-0.16,0.14h-0.86v3.75c0,0.08-0.07,0.16-0.16,0.16h-0.4c-0.09,0-0.16-0.08-0.16-0.16v-3.75l-0.8-0.09
			C73.07,49.91,73,49.85,73,49.77v-0.22c0-0.08,0.07-0.15,0.16-0.15h0.8v-0.59c0-0.88,0.43-1.14,1.15-1.14
			c0.22,0,0.35,0.02,0.46,0.05c0.09,0.03,0.16,0.06,0.16,0.13v0.27C75.72,48.21,75.67,48.24,75.58,48.24z"/>
		<path class="st2" d="M78.35,49.97c-0.38,0-0.72,0.1-1.13,0.35v3.45c0,0.08-0.07,0.16-0.16,0.16h-0.4c-0.08,0-0.16-0.07-0.16-0.16
			v-4.2c0-0.09,0.07-0.16,0.16-0.16h0.39c0.09,0,0.16,0.07,0.16,0.16v0.17c0.41-0.29,0.79-0.39,1.16-0.39
			c0.12,0,0.17,0.05,0.17,0.15v0.34C78.52,49.92,78.46,49.97,78.35,49.97z"/>
		<path class="st2" d="M79.97,48.68h-0.42c-0.09,0-0.16-0.07-0.16-0.17v-0.66c0-0.09,0.07-0.17,0.16-0.17h0.42
			c0.09,0,0.16,0.07,0.16,0.17v0.66C80.13,48.6,80.06,48.68,79.97,48.68z M79.95,53.92h-0.39c-0.09,0-0.16-0.07-0.16-0.16v-4.2
			c0-0.09,0.07-0.16,0.16-0.16h0.39c0.09,0,0.16,0.07,0.16,0.16v4.2C80.11,53.85,80.04,53.92,79.95,53.92z"/>
		<path class="st2" d="M83.96,53.89c-0.27,0.05-0.64,0.09-1.03,0.09c-1.12,0-1.75-0.79-1.75-2v-0.64c0-1.21,0.62-2,1.75-2
			c0.38,0,0.76,0.04,1.03,0.09c0.13,0.02,0.16,0.07,0.16,0.18v0.3c0,0.08-0.07,0.12-0.14,0.12c-0.02,0-0.02,0-0.03,0
			c-0.36-0.04-0.62-0.06-1.02-0.06c-0.66,0-1.03,0.44-1.03,1.37v0.64c0,0.92,0.36,1.37,1.03,1.37c0.4,0,0.66-0.02,1.02-0.06
			c0.01,0,0.02,0,0.03,0c0.07,0,0.14,0.04,0.14,0.12v0.3C84.13,53.82,84.09,53.87,83.96,53.89z"/>
		<path class="st2" d="M88.03,53.92h-0.38c-0.09,0-0.16-0.07-0.16-0.16v-0.18c-0.4,0.23-0.81,0.4-1.27,0.4
			c-0.7,0-1.34-0.3-1.34-1.33v-0.1c0-0.89,0.52-1.33,1.98-1.33h0.61v-0.33c0-0.69-0.24-0.93-0.88-0.93c-0.53,0-0.93,0.03-1.26,0.07
			c-0.02,0-0.02,0-0.04,0c-0.07,0-0.15-0.02-0.15-0.13v-0.29c0-0.09,0.06-0.14,0.17-0.16c0.34-0.06,0.72-0.11,1.27-0.11
			c1.14,0,1.6,0.58,1.6,1.55v2.87C88.2,53.85,88.12,53.92,88.03,53.92z M87.47,51.74h-0.61c-1,0-1.26,0.22-1.26,0.81v0.1
			c0,0.59,0.28,0.75,0.76,0.75c0.38,0,0.72-0.12,1.11-0.33V51.74z"/>
		<path class="st2" d="M92.61,53.92h-0.4c-0.09,0-0.16-0.07-0.16-0.16v-2.71c0-0.83-0.28-1.09-0.9-1.09c-0.35,0-0.73,0.13-1.11,0.32
			v3.47c0,0.08-0.07,0.16-0.16,0.16h-0.4c-0.08,0-0.16-0.07-0.16-0.16v-4.2c0-0.09,0.07-0.16,0.16-0.16h0.41
			c0.09,0,0.16,0.07,0.16,0.16v0.16c0.45-0.25,0.82-0.38,1.31-0.38c0.99,0,1.43,0.62,1.43,1.71v2.71
			C92.78,53.85,92.7,53.92,92.61,53.92z"/>
		<path class="st2" d="M96.69,53.92h-0.45c-0.08,0-0.15-0.07-0.15-0.16v-5.79c0-0.08,0.06-0.16,0.15-0.16h0.45
			c0.08,0,0.15,0.07,0.15,0.16v5.79C96.84,53.84,96.78,53.92,96.69,53.92z"/>
		<path class="st2" d="M101.42,53.92h-0.39c-0.09,0-0.17-0.07-0.17-0.16v-2.71c0-0.83-0.28-1.09-0.9-1.09
			c-0.35,0-0.73,0.13-1.11,0.32v3.47c0,0.08-0.07,0.16-0.16,0.16h-0.4c-0.08,0-0.16-0.07-0.16-0.16v-4.2c0-0.09,0.07-0.16,0.16-0.16
			h0.41c0.09,0,0.16,0.07,0.16,0.16v0.16c0.45-0.25,0.82-0.38,1.31-0.38c0.99,0,1.43,0.62,1.43,1.71v2.71
			C101.58,53.85,101.51,53.92,101.42,53.92z"/>
		<path class="st2" d="M104.02,53.98c-0.3,0-0.9-0.02-1.3-0.12c-0.11-0.03-0.17-0.07-0.17-0.17v-0.29c0-0.07,0.07-0.12,0.15-0.12
			c0.02,0,0.02,0,0.03,0c0.4,0.05,1,0.09,1.29,0.09c0.53,0,0.81-0.14,0.81-0.58c0-0.25-0.15-0.4-0.62-0.68l-0.83-0.49
			c-0.5-0.3-0.84-0.66-0.84-1.18c0-0.86,0.64-1.09,1.49-1.09c0.46,0,0.9,0.04,1.28,0.11c0.11,0.02,0.16,0.07,0.16,0.16v0.27
			c0,0.1-0.06,0.14-0.14,0.14c-0.01,0-0.02,0-0.02,0c-0.29-0.02-0.81-0.07-1.28-0.07c-0.46,0-0.76,0.06-0.76,0.48
			c0,0.25,0.19,0.4,0.57,0.62l0.81,0.49c0.68,0.4,0.9,0.76,0.9,1.24C105.56,53.63,104.95,53.98,104.02,53.98z"/>
		<path class="st2" d="M108.68,53.94c-0.16,0.02-0.38,0.04-0.53,0.04c-0.76,0-1.12-0.2-1.12-1.1v-2.87l-0.8-0.09
			c-0.09-0.01-0.16-0.06-0.16-0.15v-0.22c0-0.09,0.07-0.15,0.16-0.15h0.8v-0.81c0-0.08,0.06-0.15,0.15-0.17l0.43-0.07
			c0.01,0,0.02,0,0.02,0c0.07,0,0.12,0.06,0.12,0.14v0.9h0.89c0.09,0,0.17,0.07,0.17,0.16v0.28c0,0.09-0.07,0.16-0.17,0.16h-0.89
			v2.87c0,0.45,0.12,0.52,0.44,0.52h0.46c0.12,0,0.17,0.03,0.17,0.12v0.29C108.83,53.87,108.79,53.92,108.68,53.94z"/>
		<path class="st2" d="M110.26,48.68h-0.42c-0.09,0-0.16-0.07-0.16-0.17v-0.66c0-0.09,0.07-0.17,0.16-0.17h0.42
			c0.09,0,0.16,0.07,0.16,0.17v0.66C110.42,48.6,110.35,48.68,110.26,48.68z M110.24,53.92h-0.39c-0.09,0-0.17-0.07-0.17-0.16v-4.2
			c0-0.09,0.07-0.16,0.17-0.16h0.39c0.09,0,0.16,0.07,0.16,0.16v4.2C110.4,53.85,110.33,53.92,110.24,53.92z"/>
		<path class="st2" d="M113.87,53.94c-0.16,0.02-0.38,0.04-0.53,0.04c-0.76,0-1.12-0.2-1.12-1.1v-2.87l-0.8-0.09
			c-0.09-0.01-0.16-0.06-0.16-0.15v-0.22c0-0.09,0.07-0.15,0.16-0.15h0.8v-0.81c0-0.08,0.06-0.15,0.15-0.17l0.43-0.07
			c0.01,0,0.02,0,0.02,0c0.07,0,0.12,0.06,0.12,0.14v0.9h0.89c0.09,0,0.17,0.07,0.17,0.16v0.28c0,0.09-0.07,0.16-0.17,0.16h-0.89
			v2.87c0,0.45,0.12,0.52,0.44,0.52h0.46c0.12,0,0.17,0.03,0.17,0.12v0.29C114.02,53.87,113.98,53.92,113.87,53.94z"/>
		<path class="st2" d="M118.09,53.92h-0.41c-0.09,0-0.16-0.07-0.16-0.16V53.6c-0.45,0.25-0.82,0.38-1.31,0.38
			c-0.99,0-1.43-0.62-1.43-1.71v-2.71c0-0.09,0.07-0.16,0.16-0.16h0.39c0.09,0,0.17,0.07,0.17,0.16v2.71c0,0.83,0.28,1.09,0.9,1.09
			c0.35,0,0.73-0.13,1.11-0.32v-3.47c0-0.08,0.07-0.16,0.17-0.16h0.4c0.08,0,0.16,0.07,0.16,0.16v4.2
			C118.25,53.85,118.18,53.92,118.09,53.92z"/>
		<path class="st2" d="M121.62,53.94c-0.16,0.02-0.38,0.04-0.53,0.04c-0.76,0-1.12-0.2-1.12-1.1v-2.87l-0.8-0.09
			c-0.09-0.01-0.16-0.06-0.16-0.15v-0.22c0-0.09,0.07-0.15,0.16-0.15h0.8v-0.81c0-0.08,0.06-0.15,0.15-0.17l0.43-0.07
			c0.01,0,0.02,0,0.02,0c0.07,0,0.12,0.06,0.12,0.14v0.9h0.89c0.09,0,0.17,0.07,0.17,0.16v0.28c0,0.09-0.07,0.16-0.17,0.16h-0.89
			v2.87c0,0.45,0.12,0.52,0.44,0.52h0.46c0.12,0,0.17,0.03,0.17,0.12v0.29C121.77,53.87,121.73,53.92,121.62,53.94z"/>
		<path class="st2" d="M125.86,51.89h-2.76v0.12c0,0.98,0.39,1.34,1.14,1.34c0.48,0,1.09-0.03,1.46-0.09c0.02,0,0.02,0,0.04,0
			c0.07,0,0.13,0.03,0.13,0.12v0.28c0,0.11-0.03,0.17-0.17,0.19c-0.47,0.09-0.92,0.14-1.47,0.14c-0.95,0-1.87-0.44-1.87-1.97v-0.74
			c0-1.18,0.65-1.92,1.83-1.92c1.2,0,1.81,0.76,1.81,1.92v0.44C126.02,51.82,125.96,51.89,125.86,51.89z M125.29,51.27
			c0-0.93-0.35-1.29-1.08-1.29c-0.71,0-1.1,0.4-1.1,1.29v0.07h2.18V51.27z"/>
		<path class="st2" d="M131.26,48.24h-0.4c-0.39,0-0.5,0.12-0.5,0.57v0.59h0.86c0.09,0,0.16,0.07,0.16,0.15v0.32
			c0,0.08-0.07,0.14-0.16,0.14h-0.86v3.75c0,0.08-0.07,0.16-0.16,0.16h-0.4c-0.09,0-0.17-0.08-0.17-0.16v-3.75l-0.8-0.09
			c-0.09-0.01-0.16-0.07-0.16-0.15v-0.22c0-0.08,0.07-0.15,0.16-0.15h0.8v-0.59c0-0.88,0.43-1.14,1.15-1.14
			c0.22,0,0.35,0.02,0.46,0.05c0.09,0.03,0.16,0.06,0.16,0.13v0.27C131.4,48.21,131.35,48.24,131.26,48.24z"/>
		<path class="st2" d="M133.67,53.98c-1.21,0-1.83-0.8-1.83-2.01v-0.62c0-1.21,0.62-2.01,1.83-2.01s1.83,0.8,1.83,2.01v0.62
			C135.5,53.18,134.87,53.98,133.67,53.98z M134.78,51.35c0-0.84-0.34-1.37-1.11-1.37c-0.76,0-1.1,0.53-1.1,1.37v0.62
			c0,0.84,0.33,1.37,1.1,1.37c0.76,0,1.11-0.53,1.11-1.37V51.35z"/>
		<path class="st2" d="M138.33,49.97c-0.38,0-0.72,0.1-1.13,0.35v3.45c0,0.08-0.07,0.16-0.17,0.16h-0.4c-0.08,0-0.16-0.07-0.16-0.16
			v-4.2c0-0.09,0.07-0.16,0.16-0.16h0.39c0.09,0,0.16,0.07,0.16,0.16v0.17c0.41-0.29,0.79-0.39,1.16-0.39
			c0.12,0,0.17,0.05,0.17,0.15v0.34C138.5,49.92,138.44,49.97,138.33,49.97z"/>
		<path class="st2" d="M143.06,53.98c-0.63,0-1.26-0.04-1.5-0.08c-0.11-0.02-0.17-0.08-0.17-0.21v-5.65c0-0.12,0.07-0.19,0.17-0.21
			c0.24-0.04,0.87-0.08,1.5-0.08c1.52,0,2.49,0.78,2.49,2.56v1.11C145.55,53.18,144.58,53.98,143.06,53.98z M144.81,50.31
			c0-1.49-0.76-1.92-1.74-1.92c-0.39,0-0.64,0.01-0.91,0.02v4.9c0.26,0.02,0.53,0.02,0.91,0.02c0.99,0,1.74-0.44,1.74-1.92V50.31z"
			/>
		<path class="st2" d="M149.91,51.89h-2.76v0.12c0,0.98,0.39,1.34,1.14,1.34c0.48,0,1.09-0.03,1.46-0.09c0.02,0,0.02,0,0.04,0
			c0.07,0,0.13,0.03,0.13,0.12v0.28c0,0.11-0.03,0.17-0.17,0.19c-0.47,0.09-0.92,0.14-1.47,0.14c-0.95,0-1.87-0.44-1.87-1.97v-0.74
			c0-1.18,0.65-1.92,1.83-1.92c1.2,0,1.81,0.76,1.81,1.92v0.44C150.07,51.82,150.01,51.89,149.91,51.89z M149.34,51.27
			c0-0.93-0.35-1.29-1.08-1.29c-0.71,0-1.1,0.4-1.1,1.29v0.07h2.18V51.27z"/>
		<path class="st2" d="M154.36,49.6l-1.11,3.92c-0.11,0.37-0.39,0.47-0.74,0.47s-0.63-0.1-0.74-0.47l-1.11-3.92
			c-0.01-0.02-0.01-0.04-0.01-0.06c0-0.08,0.05-0.14,0.13-0.14h0.45c0.07,0,0.12,0.05,0.16,0.16l0.95,3.59
			c0.05,0.2,0.09,0.24,0.17,0.24c0.07,0,0.12-0.04,0.17-0.24l0.95-3.59c0.03-0.11,0.09-0.16,0.16-0.16h0.45
			c0.08,0,0.13,0.06,0.13,0.14C154.37,49.56,154.37,49.57,154.36,49.6z"/>
		<path class="st2" d="M158.41,51.89h-2.76v0.12c0,0.98,0.39,1.34,1.14,1.34c0.48,0,1.09-0.03,1.46-0.09c0.02,0,0.02,0,0.04,0
			c0.07,0,0.13,0.03,0.13,0.12v0.28c0,0.11-0.03,0.17-0.17,0.19c-0.47,0.09-0.92,0.14-1.47,0.14c-0.95,0-1.87-0.44-1.87-1.97v-0.74
			c0-1.18,0.65-1.92,1.83-1.92c1.2,0,1.81,0.76,1.81,1.92v0.44C158.57,51.82,158.51,51.89,158.41,51.89z M157.84,51.27
			c0-0.93-0.35-1.29-1.08-1.29c-0.71,0-1.1,0.4-1.1,1.29v0.07h2.18V51.27z"/>
		<path class="st2" d="M160.21,53.92h-0.43c-0.08,0-0.15-0.07-0.15-0.16V47.9c0-0.08,0.06-0.16,0.15-0.16h0.43
			c0.08,0,0.15,0.07,0.15,0.16v5.86C160.36,53.84,160.3,53.92,160.21,53.92z"/>
		<path class="st2" d="M163.24,53.98c-1.21,0-1.83-0.8-1.83-2.01v-0.62c0-1.21,0.62-2.01,1.83-2.01s1.83,0.8,1.83,2.01v0.62
			C165.07,53.18,164.45,53.98,163.24,53.98z M164.35,51.35c0-0.84-0.34-1.37-1.11-1.37c-0.76,0-1.1,0.53-1.1,1.37v0.62
			c0,0.84,0.33,1.37,1.1,1.37c0.76,0,1.11-0.53,1.11-1.37V51.35z"/>
		<path class="st2" d="M167.73,53.98c-0.25,0-0.64-0.03-0.96-0.09v1.49c0,0.08-0.07,0.16-0.16,0.16h-0.42
			c-0.08,0-0.15-0.07-0.15-0.16v-5.66c0-0.11,0.02-0.16,0.17-0.19c0.44-0.11,1.01-0.19,1.51-0.19c1.23,0,1.79,0.8,1.79,2.03v0.59
			C169.52,53.26,168.93,53.98,167.73,53.98z M168.8,51.37c0-0.86-0.25-1.42-1.07-1.42c-0.35,0-0.73,0.04-0.96,0.08v3.26
			c0.27,0.05,0.7,0.08,0.96,0.08c0.81,0,1.07-0.53,1.07-1.41V51.37z"/>
		<path class="st2" d="M175.77,53.92h-0.4c-0.09,0-0.16-0.07-0.16-0.16v-2.91c0-0.69-0.32-0.88-0.75-0.88c-0.3,0-0.64,0.1-0.96,0.22
			c0.05,0.18,0.07,0.4,0.07,0.64v2.93c0,0.08-0.06,0.16-0.15,0.16h-0.44c-0.08,0-0.14-0.07-0.14-0.16v-2.93
			c0-0.71-0.21-0.86-0.63-0.86c-0.3,0-0.66,0.15-1,0.32v3.47c0,0.08-0.06,0.16-0.15,0.16h-0.44c-0.08,0-0.14-0.07-0.14-0.16v-4.2
			c0-0.09,0.07-0.16,0.16-0.16h0.41c0.09,0,0.16,0.07,0.16,0.16v0.16c0.33-0.21,0.75-0.39,1.2-0.39c0.35,0,0.62,0.1,0.82,0.34
			c0.45-0.21,0.94-0.34,1.37-0.34c0.74,0,1.33,0.37,1.33,1.51v2.91C175.94,53.85,175.86,53.92,175.77,53.92z"/>
		<path class="st2" d="M180.38,51.89h-2.76v0.12c0,0.98,0.39,1.34,1.14,1.34c0.48,0,1.09-0.03,1.46-0.09c0.02,0,0.02,0,0.04,0
			c0.07,0,0.13,0.03,0.13,0.12v0.28c0,0.11-0.03,0.17-0.17,0.19c-0.47,0.09-0.92,0.14-1.47,0.14c-0.95,0-1.87-0.44-1.87-1.97v-0.74
			c0-1.18,0.65-1.92,1.83-1.92c1.2,0,1.81,0.76,1.81,1.92v0.44C180.54,51.82,180.48,51.89,180.38,51.89z M179.81,51.27
			c0-0.93-0.35-1.29-1.08-1.29c-0.71,0-1.1,0.4-1.1,1.29v0.07h2.18V51.27z"/>
		<path class="st2" d="M184.82,53.92h-0.39c-0.09,0-0.17-0.07-0.17-0.16v-2.71c0-0.83-0.28-1.09-0.9-1.09
			c-0.35,0-0.73,0.13-1.11,0.32v3.47c0,0.08-0.07,0.16-0.17,0.16h-0.4c-0.08,0-0.16-0.07-0.16-0.16v-4.2c0-0.09,0.07-0.16,0.16-0.16
			h0.41c0.09,0,0.16,0.07,0.16,0.16v0.16c0.45-0.25,0.82-0.38,1.31-0.38c0.99,0,1.43,0.62,1.43,1.71v2.71
			C184.99,53.85,184.91,53.92,184.82,53.92z"/>
		<path class="st2" d="M188.19,53.94c-0.16,0.02-0.38,0.04-0.53,0.04c-0.76,0-1.12-0.2-1.12-1.1v-2.87l-0.8-0.09
			c-0.09-0.01-0.16-0.06-0.16-0.15v-0.22c0-0.09,0.07-0.15,0.16-0.15h0.8v-0.81c0-0.08,0.06-0.15,0.15-0.17l0.43-0.07
			c0.01,0,0.02,0,0.02,0c0.07,0,0.12,0.06,0.12,0.14v0.9h0.89c0.09,0,0.17,0.07,0.17,0.16v0.28c0,0.09-0.07,0.16-0.17,0.16h-0.89
			v2.87c0,0.45,0.12,0.52,0.44,0.52h0.46c0.12,0,0.17,0.03,0.17,0.12v0.29C188.34,53.87,188.3,53.92,188.19,53.94z"/>
		<path class="st2" d="M72.67,63.79h-0.53c-0.1,0-0.15,0-0.21-0.11l-1.47-2.45c-0.02,0-0.05,0-0.07,0c-0.05,0-0.09,0-0.14,0
			c-0.27,0-0.47-0.01-0.9-0.02v2.42c0,0.08-0.06,0.16-0.15,0.16h-0.44c-0.08,0-0.15-0.07-0.15-0.16v-5.76c0-0.12,0.05-0.16,0.2-0.18
			c0.35-0.04,0.97-0.07,1.45-0.07c1.3,0,2.3,0.44,2.3,1.77v0.06c0,0.92-0.54,1.46-1.29,1.66l1.5,2.5c0.02,0.02,0.02,0.05,0.02,0.07
			C72.78,63.74,72.74,63.79,72.67,63.79z M71.81,59.39c0-0.82-0.53-1.09-1.56-1.09c-0.26,0-0.71,0-0.9,0.02v2.25
			c0.36,0.01,0.72,0.02,0.9,0.02c1.01,0,1.56-0.25,1.56-1.14V59.39z"/>
		<path class="st2" d="M76.82,61.76h-2.76v0.12c0,0.98,0.39,1.34,1.14,1.34c0.48,0,1.09-0.03,1.46-0.09c0.02,0,0.02,0,0.04,0
			c0.07,0,0.13,0.03,0.13,0.12v0.28c0,0.11-0.03,0.17-0.16,0.19c-0.47,0.09-0.92,0.14-1.47,0.14c-0.95,0-1.87-0.44-1.87-1.97v-0.74
			c0-1.18,0.65-1.92,1.83-1.92c1.2,0,1.81,0.76,1.81,1.92v0.44C76.97,61.69,76.92,61.76,76.82,61.76z M76.24,61.13
			c0-0.93-0.35-1.29-1.08-1.29c-0.71,0-1.1,0.4-1.1,1.29v0.07h2.18V61.13z"/>
		<path class="st2" d="M79.28,63.85c-0.3,0-0.9-0.02-1.3-0.12c-0.11-0.03-0.17-0.07-0.17-0.17v-0.29c0-0.07,0.07-0.12,0.15-0.12
			c0.02,0,0.02,0,0.03,0c0.39,0.05,1,0.09,1.29,0.09c0.53,0,0.81-0.14,0.81-0.58c0-0.25-0.15-0.4-0.62-0.68l-0.83-0.49
			c-0.5-0.3-0.84-0.66-0.84-1.18c0-0.86,0.64-1.09,1.49-1.09c0.46,0,0.9,0.04,1.28,0.11c0.11,0.02,0.16,0.07,0.16,0.16v0.27
			c0,0.1-0.06,0.14-0.14,0.14c-0.01,0-0.02,0-0.02,0c-0.29-0.02-0.81-0.07-1.27-0.07s-0.77,0.06-0.77,0.48
			c0,0.25,0.19,0.4,0.57,0.62l0.81,0.49c0.68,0.4,0.9,0.76,0.9,1.24C80.82,63.49,80.2,63.85,79.28,63.85z"/>
		<path class="st2" d="M85.12,61.76h-2.76v0.12c0,0.98,0.39,1.34,1.14,1.34c0.48,0,1.09-0.03,1.46-0.09c0.02,0,0.02,0,0.04,0
			c0.07,0,0.13,0.03,0.13,0.12v0.28c0,0.11-0.03,0.17-0.16,0.19c-0.47,0.09-0.92,0.14-1.47,0.14c-0.95,0-1.87-0.44-1.87-1.97v-0.74
			c0-1.18,0.65-1.92,1.83-1.92c1.2,0,1.81,0.76,1.81,1.92v0.44C85.28,61.69,85.22,61.76,85.12,61.76z M84.55,61.13
			c0-0.93-0.35-1.29-1.08-1.29c-0.71,0-1.1,0.4-1.1,1.29v0.07h2.18V61.13z"/>
		<path class="st2" d="M89.25,63.79h-0.38c-0.09,0-0.16-0.07-0.16-0.16v-0.18c-0.4,0.23-0.81,0.4-1.27,0.4
			c-0.7,0-1.34-0.3-1.34-1.33v-0.1c0-0.89,0.52-1.33,1.98-1.33h0.61v-0.33c0-0.69-0.24-0.93-0.88-0.93c-0.53,0-0.93,0.03-1.26,0.07
			c-0.02,0-0.02,0-0.04,0c-0.07,0-0.15-0.02-0.15-0.13v-0.29c0-0.09,0.06-0.14,0.17-0.16c0.34-0.06,0.72-0.11,1.27-0.11
			c1.14,0,1.6,0.58,1.6,1.55v2.87C89.41,63.72,89.34,63.79,89.25,63.79z M88.69,61.6h-0.61c-1,0-1.26,0.22-1.26,0.81v0.1
			c0,0.59,0.28,0.75,0.76,0.75c0.38,0,0.72-0.12,1.11-0.33V61.6z"/>
		<path class="st2" d="M92.39,59.83c-0.38,0-0.72,0.1-1.13,0.35v3.45c0,0.08-0.07,0.16-0.16,0.16h-0.4c-0.08,0-0.16-0.07-0.16-0.16
			v-4.2c0-0.09,0.07-0.16,0.16-0.16h0.39c0.09,0,0.16,0.07,0.16,0.16v0.17c0.41-0.29,0.79-0.39,1.16-0.39
			c0.12,0,0.17,0.05,0.17,0.15v0.34C92.56,59.79,92.5,59.83,92.39,59.83z"/>
		<path class="st2" d="M95.77,63.76c-0.27,0.05-0.64,0.09-1.03,0.09c-1.12,0-1.75-0.79-1.75-2v-0.64c0-1.21,0.62-2,1.75-2
			c0.38,0,0.76,0.04,1.03,0.09c0.13,0.02,0.16,0.07,0.16,0.18v0.3c0,0.08-0.07,0.12-0.14,0.12c-0.02,0-0.02,0-0.03,0
			c-0.36-0.04-0.62-0.06-1.02-0.06c-0.66,0-1.03,0.44-1.03,1.37v0.64c0,0.92,0.36,1.37,1.03,1.37c0.4,0,0.66-0.02,1.02-0.06
			c0.01,0,0.02,0,0.03,0c0.07,0,0.14,0.04,0.14,0.12v0.3C95.93,63.68,95.9,63.73,95.77,63.76z"/>
		<path class="st2" d="M100.15,63.79h-0.4c-0.09,0-0.16-0.07-0.16-0.16v-2.71c0-0.82-0.35-1.08-0.88-1.08
			c-0.25,0-0.77,0.07-1.13,0.23v3.55c0,0.08-0.07,0.16-0.16,0.16h-0.4c-0.08,0-0.16-0.07-0.16-0.16v-5.86
			c0-0.09,0.07-0.16,0.16-0.16h0.41c0.09,0,0.16,0.07,0.16,0.16v1.69c0.39-0.17,0.9-0.25,1.26-0.25c0.87,0,1.48,0.5,1.48,1.71v2.71
			C100.32,63.72,100.24,63.79,100.15,63.79z"/>
		<path class="st2" d="M106.45,63.79h-0.38c-0.09,0-0.16-0.07-0.16-0.16v-0.18c-0.39,0.23-0.81,0.4-1.27,0.4
			c-0.7,0-1.34-0.3-1.34-1.33v-0.1c0-0.89,0.52-1.33,1.98-1.33h0.61v-0.33c0-0.69-0.24-0.93-0.88-0.93c-0.53,0-0.93,0.03-1.26,0.07
			c-0.02,0-0.02,0-0.04,0c-0.07,0-0.15-0.02-0.15-0.13v-0.29c0-0.09,0.06-0.14,0.17-0.16c0.34-0.06,0.71-0.11,1.27-0.11
			c1.14,0,1.6,0.58,1.6,1.55v2.87C106.61,63.72,106.54,63.79,106.45,63.79z M105.89,61.6h-0.61c-1,0-1.26,0.22-1.26,0.81v0.1
			c0,0.59,0.28,0.75,0.76,0.75c0.38,0,0.72-0.12,1.11-0.33V61.6z"/>
		<path class="st2" d="M111.03,63.79h-0.39c-0.09,0-0.17-0.07-0.17-0.16v-2.71c0-0.83-0.28-1.09-0.9-1.09
			c-0.35,0-0.73,0.13-1.11,0.32v3.47c0,0.08-0.07,0.16-0.17,0.16h-0.4c-0.08,0-0.16-0.07-0.16-0.16v-4.2c0-0.09,0.07-0.16,0.16-0.16
			h0.41c0.09,0,0.16,0.07,0.16,0.16v0.16c0.45-0.25,0.82-0.38,1.31-0.38c0.99,0,1.43,0.62,1.43,1.71v2.71
			C111.19,63.72,111.12,63.79,111.03,63.79z"/>
		<path class="st2" d="M115.47,63.71c-0.51,0.1-1.01,0.14-1.51,0.14c-1.23,0-1.79-0.8-1.79-2.03v-0.59c0-1.29,0.59-2.01,1.79-2.01
			c0.25,0,0.64,0.02,0.96,0.08v-1.53c0-0.08,0.07-0.16,0.16-0.16h0.42c0.08,0,0.15,0.07,0.15,0.16v5.76
			C115.64,63.63,115.62,63.68,115.47,63.71z M114.92,59.9c-0.27-0.05-0.7-0.06-0.96-0.06c-0.81,0-1.07,0.5-1.07,1.38v0.59
			c0,0.9,0.25,1.4,1.07,1.4c0.28,0,0.68-0.02,0.96-0.05V59.9z"/>
		<path class="st2" d="M122.23,63.81c-0.31,0.03-1.12,0.04-1.6,0.04c-1.15,0-1.75-0.44-1.75-1.53v-3.17c0-1.09,0.6-1.53,1.75-1.53
			c0.49,0,1.26,0.02,1.6,0.05c0.05,0.01,0.08,0.07,0.08,0.12v0.41c0,0.06-0.03,0.1-0.09,0.1h-1.59c-0.87,0-1.01,0.23-1.01,0.86v1.14
			h2.53c0.09,0,0.16,0.07,0.16,0.16v0.31c0,0.09-0.07,0.17-0.16,0.17h-2.53v1.38c0,0.63,0.14,0.86,1.01,0.86h1.59
			c0.06,0,0.09,0.04,0.09,0.1v0.42C122.31,63.74,122.28,63.8,122.23,63.81z"/>
		<path class="st2" d="M126.79,59.46l-1.11,3.92c-0.11,0.37-0.39,0.47-0.74,0.47s-0.63-0.1-0.74-0.47l-1.11-3.92
			c-0.01-0.02-0.01-0.04-0.01-0.06c0-0.08,0.05-0.14,0.13-0.14h0.45c0.07,0,0.12,0.05,0.16,0.16l0.95,3.59
			c0.05,0.2,0.09,0.24,0.17,0.24c0.07,0,0.12-0.04,0.17-0.24l0.95-3.59c0.03-0.11,0.09-0.16,0.16-0.16h0.45
			c0.08,0,0.13,0.06,0.13,0.14C126.8,59.42,126.8,59.44,126.79,59.46z"/>
		<path class="st2" d="M130.49,63.79h-0.38c-0.09,0-0.16-0.07-0.16-0.16v-0.18c-0.39,0.23-0.81,0.4-1.27,0.4
			c-0.7,0-1.34-0.3-1.34-1.33v-0.1c0-0.89,0.52-1.33,1.98-1.33h0.61v-0.33c0-0.69-0.24-0.93-0.88-0.93c-0.53,0-0.93,0.03-1.26,0.07
			c-0.02,0-0.02,0-0.04,0c-0.07,0-0.15-0.02-0.15-0.13v-0.29c0-0.09,0.06-0.14,0.17-0.16c0.34-0.06,0.71-0.11,1.27-0.11
			c1.14,0,1.6,0.58,1.6,1.55v2.87C130.66,63.72,130.58,63.79,130.49,63.79z M129.93,61.6h-0.61c-1,0-1.26,0.22-1.26,0.81v0.1
			c0,0.59,0.28,0.75,0.76,0.75c0.38,0,0.72-0.12,1.11-0.33V61.6z"/>
		<path class="st2" d="M132.43,63.79H132c-0.08,0-0.15-0.07-0.15-0.16v-5.86c0-0.08,0.06-0.16,0.15-0.16h0.43
			c0.08,0,0.15,0.07,0.15,0.16v5.86C132.58,63.71,132.52,63.79,132.43,63.79z"/>
		<path class="st2" d="M137.09,63.79h-0.41c-0.09,0-0.16-0.07-0.16-0.16v-0.16c-0.45,0.25-0.82,0.38-1.31,0.38
			c-0.99,0-1.43-0.62-1.43-1.71v-2.71c0-0.09,0.07-0.16,0.16-0.16h0.39c0.09,0,0.17,0.07,0.17,0.16v2.71c0,0.83,0.28,1.09,0.9,1.09
			c0.35,0,0.73-0.13,1.11-0.32v-3.47c0-0.08,0.07-0.16,0.17-0.16h0.4c0.08,0,0.16,0.07,0.16,0.16v4.2
			C137.24,63.72,137.18,63.79,137.09,63.79z"/>
		<path class="st2" d="M141.35,63.79h-0.38c-0.09,0-0.16-0.07-0.16-0.16v-0.18c-0.39,0.23-0.81,0.4-1.27,0.4
			c-0.7,0-1.34-0.3-1.34-1.33v-0.1c0-0.89,0.52-1.33,1.98-1.33h0.61v-0.33c0-0.69-0.24-0.93-0.88-0.93c-0.53,0-0.93,0.03-1.26,0.07
			c-0.02,0-0.02,0-0.04,0c-0.07,0-0.15-0.02-0.15-0.13v-0.29c0-0.09,0.06-0.14,0.17-0.16c0.34-0.06,0.71-0.11,1.27-0.11
			c1.14,0,1.6,0.58,1.6,1.55v2.87C141.51,63.72,141.44,63.79,141.35,63.79z M140.79,61.6h-0.61c-1,0-1.26,0.22-1.26,0.81v0.1
			c0,0.59,0.28,0.75,0.76,0.75c0.38,0,0.72-0.12,1.11-0.33V61.6z"/>
		<path class="st2" d="M144.68,63.81c-0.16,0.02-0.38,0.04-0.53,0.04c-0.76,0-1.12-0.2-1.12-1.1v-2.87l-0.8-0.09
			c-0.09-0.01-0.16-0.06-0.16-0.15v-0.22c0-0.09,0.07-0.15,0.16-0.15h0.8v-0.81c0-0.08,0.06-0.15,0.15-0.17l0.43-0.07
			c0.01,0,0.02,0,0.02,0c0.07,0,0.12,0.06,0.12,0.14v0.9h0.89c0.09,0,0.17,0.07,0.17,0.16v0.28c0,0.09-0.07,0.16-0.17,0.16h-0.89
			v2.87c0,0.45,0.12,0.52,0.44,0.52h0.46c0.12,0,0.17,0.03,0.17,0.12v0.29C144.83,63.74,144.79,63.79,144.68,63.81z"/>
		<path class="st2" d="M146.26,58.54h-0.42c-0.09,0-0.16-0.07-0.16-0.17v-0.66c0-0.09,0.07-0.17,0.16-0.17h0.42
			c0.09,0,0.16,0.07,0.16,0.17v0.66C146.43,58.47,146.35,58.54,146.26,58.54z M146.25,63.79h-0.39c-0.09,0-0.17-0.07-0.17-0.16v-4.2
			c0-0.09,0.07-0.16,0.17-0.16h0.39c0.09,0,0.16,0.07,0.16,0.16v4.2C146.41,63.72,146.34,63.79,146.25,63.79z"/>
		<path class="st2" d="M149.3,63.85c-1.21,0-1.83-0.8-1.83-2.01v-0.62c0-1.21,0.62-2.01,1.83-2.01s1.83,0.8,1.83,2.01v0.62
			C151.14,63.05,150.51,63.85,149.3,63.85z M150.42,61.22c0-0.84-0.34-1.37-1.11-1.37c-0.76,0-1.1,0.53-1.1,1.37v0.62
			c0,0.84,0.33,1.37,1.1,1.37c0.76,0,1.11-0.53,1.11-1.37V61.22z"/>
		<path class="st2" d="M155.41,63.79h-0.39c-0.09,0-0.17-0.07-0.17-0.16v-2.71c0-0.83-0.28-1.09-0.9-1.09
			c-0.35,0-0.73,0.13-1.11,0.32v3.47c0,0.08-0.07,0.16-0.17,0.16h-0.4c-0.08,0-0.16-0.07-0.16-0.16v-4.2c0-0.09,0.07-0.16,0.16-0.16
			h0.41c0.09,0,0.16,0.07,0.16,0.16v0.16c0.45-0.25,0.82-0.38,1.31-0.38c0.99,0,1.43,0.62,1.43,1.71v2.71
			C155.57,63.72,155.5,63.79,155.41,63.79z"/>
	</g>
</g>
<line class="st3" x1="68.38" y1="43.19" x2="187.02" y2="43.19"/>
<g>
	<path class="st1" d="M59.89,29.93c-0.01-0.12-0.03-0.25-0.02-0.37c0.02-0.24-0.26-0.49-0.42-0.33c-0.33,0.32-4.28,0.99-4.61,1.22
		c-0.33,0.24-0.83,0.14-1.08-0.18c-0.28-0.37-0.45-0.86-1.07-0.79c0.11-0.12,0.2-0.21,0.31-0.27c0.27-0.14,0.25-0.34,0.11-0.53
		c-0.09-0.13-0.23-0.22-0.36-0.33c-0.15-0.12-0.32-0.21-0.46-0.35c-0.34-0.34-0.65-0.72-1.01-1.03c-0.05-0.05-0.18-0.21-0.34-0.44
		l-3.2-0.86c0.12-1.41-0.03-2.81-0.53-4.12c-1.97-5.15-8.56-7.84-16-6.48l-2.34-3.15c-1.32-0.55-2.55-1.05-2.6-1.08
		c-0.09-0.06-0.6-0.31-0.81-0.41c0.32-0.3,0.57-0.54,0.82-0.77c0.37-0.34,0.4-0.49,0.07-0.86c-0.18-0.21-0.36-1.29-0.66-1.23
		c-0.14,0.03-0.29,0.06-0.42,0.12c-0.3,0.17-0.58,0.23-0.95,0.15c-0.37-0.08-0.77-0.01-1.16,0c-0.04,0-0.08,0.04-0.12,0.06
		c-0.26,0.11-0.51,0.27-0.79,0.03c-0.06-0.05-0.2-0.03-0.3-0.02c-0.68,0.07-1.36,0.13-2.04,0.22c-0.28,0.04-0.55,0.13-0.82,0.23
		c-0.33,0.12-0.64,0.28-0.97,0.42c-0.21,0.09-0.46,0.12-0.62,0.27c-0.39,0.35-0.8,0.34-1.25,0.18c-0.14-0.05-0.31-0.06-0.45-0.02
		c-0.59,0.16-0.86,0.07-1.24-0.43c-0.04-0.05-0.09-0.1-0.19-0.22c-0.17,0.16-0.34,0.3-0.48,0.46c-0.12,0.15-0.2,0.33-0.31,0.5
		c-0.3,0.47-0.64,0.87-1.23,1.03c-0.46,0.12-0.9,0.34-1.2,0.76c-0.25,0.35-3.98,4.02-4.13,4.26C6.75,16,4.85,18.07,4.3,18.65
		c-0.2,0.21-0.35,0.48-0.52,0.73c-0.14,0.21-0.24,0.49-0.44,0.61c-0.37,0.23-0.44,0.59-0.54,0.95c-0.02,0.06,0.04,0.16,0.09,0.21
		c0.46,0.46,0.48,0.7,0.13,1.28c-0.05,0.08-0.08,0.2-0.05,0.27c0.18,0.44,0.13,0.88-0.01,1.31c-0.12,0.37-0.28,0.73-0.38,1.11
		c-0.16,0.63-0.43,2.42-0.71,3.05c-0.06,0.13-0.04,0.32,0.01,0.46c0.17,0.46,0.56,0.58,1.01,0.58c-0.02,0.43,2.81,4.02,3.13,4.28
		c0.66,0.55,1.27,1.16,1.94,1.69c0.43,0.33,0.92,0.64,1.5,0.57c0.29-0.04,0.57-0.22,0.86-0.32c1.17-0.39,2.34-0.39,3.52-0.02
		c0.14,0.04,6.57-0.95,6.68-0.23c0.06,0.41,0.36,0.72,0.71,0.69c0.26-0.02,0.51-0.12,0.85-0.2c0.38,0.19,0.76,0.12,0.98-0.26
		c0.23,0.24,0.46,0.47,0.69,0.7c0.01,0.01,0.02,0.02,0.03,0.02c0.36,0.07,0.33,0.49,0.58,0.66c0.02,0.02,0.02,0.08,0.01,0.12
		c-0.14,0.51-0.29,1.03-0.42,1.54C23.95,38.52,24,38.58,24,38.65c0,0.15,0,0.31-0.02,0.45c-0.04,0.19-0.09,0.39-0.16,0.57
		c-0.07,0.18-0.17,0.35-0.25,0.53c-0.04,0.1-0.12,0.24-0.09,0.31c0.02,0.04,0.04,0.09,0.06,0.14c3.66,0.8,8.05,0.44,12.35-1.3
		c1.69-0.69,3.24-1.55,4.64-2.55l4.92,1.33c-4.1,3.5-9.03,5.79-14.79,6.78c-1.36,0.23-2.68,0.37-3.96,0.4
		c0.33,0.5,0.38,1.1,0.62,1.63c0.04,0.09,0.06,0.25,0.01,0.3c-0.22,0.23-0.1,0.46-0.02,0.67c0.12,0.32,0.29,0.62,0.42,0.94
		c0.06,0.14,0.07,0.3,0.07,0.46c0,0.18-0.05,0.37-0.04,0.55c0.01,0.32-0.12,0.57-0.36,0.74c-0.43,0.31-0.64,0.74-0.75,1.23
		c-0.17,0.77-0.36,1.54-0.49,2.32c-0.1,0.59-0.01,1.15,0.37,1.66c0.4,0.54,2.55,6.15,2.67,6.82c0.1,0.56,0.37,1.03,0.76,1.4
		c0.42,0.4,0.71,0.85,0.95,1.37c0.21,0.46,1.04,2.48,0.57,2.46c0.22,0.36,0.38,0.69,0.61,0.97c0.16,0.19,0.46,0.26,0.6,0.46
		c0.21,0.3,0.42,0.17,0.66,0.11c0.28-0.08,0.58-0.12,0.87-0.18c0.15-0.03,3.63-0.46,4.03-0.56c0.22-0.05,0.46-0.12,0.63-0.26
		c0.75-0.64,1.5-1.28,2.2-1.97c0.32-0.32,2.26-3.16,2.4-3.62c0.06-0.18,0.18-0.41-0.08-0.58c-0.04-0.02-0.02-0.21,0.03-0.27
		c0.1-0.12,0.23-0.23,0.37-0.29c0.39-0.15,0.81-0.25,1.2-0.42c0.2-0.09,0.46-0.25,0.52-0.44c0.18-0.55,0.27-1.13,0.4-1.7
		c0.01-0.06-0.01-0.14-0.03-0.2c-0.07-0.24-0.14-0.48-0.23-0.72c-0.07-0.2-0.15-0.41-0.26-0.59c-0.21-0.32-0.12-0.6,0.23-0.74
		c0.11-0.04,4.41-3.17,4.73-3.6c0.2-0.26,0.68-4.41,0.5-4.51c-0.33-0.19-0.9-2.13-0.73-2.8c0.08-0.32-0.01-0.51-0.26-0.65
		c-0.19-0.11-0.25-0.24-0.17-0.46c0.18-0.46,6.1-7.33,6.36-7.55c0.13-0.11,0.23-0.24,0.33-0.37c0.37-0.44,0.74-0.87,1.1-1.31
		c0.19-0.24,0.37-0.48,0.55-0.73c0.12-0.16,0.25-0.32,0.32-0.5c0.21-0.55,0.32-1.15,0.6-1.66c0.34-0.62,0.78-1.18,0.77-1.93
		c0-0.03,0.01-0.08,0.03-0.1C60.09,30.49,59.92,30.2,59.89,29.93z"/>
</g>
<path class="st4" d="M24.41,31.25c1.43,1.08,2.98,1.66,4.8,1.21c-0.04,0.31-0.08,0.62-0.12,0.92c-0.06,0.45-0.12,0.9-0.17,1.35
	c-0.01,0.13-0.06,0.18-0.19,0.22c-0.62,0.19-1.25,0.24-1.9,0.15c-0.96-0.14-1.82-0.54-2.6-1.11c-0.14-0.1-0.28-0.21-0.41-0.33
	c-0.03-0.03-0.05-0.09-0.04-0.13c0.2-0.75,0.4-1.51,0.6-2.26C24.4,31.27,24.41,31.26,24.41,31.25z"/>
<ellipse transform="matrix(0.9438 -0.3306 0.3306 0.9438 -7.5703 11.9093)" class="st5" cx="31.23" cy="28.21" rx="11.59" ry="7.59"/>
<g>
	<g id="eumPUo_2_">
		<g>
			<g>
				<path class="st6" d="M44.28,29.12c0.15,0.03,0.31,0.05,0.51,0.09c-0.81,1.25-1.62,2.48-2.43,3.73c-0.06-0.02-0.2-0.05-0.38-0.1
					c-2.89,3.21-6.58,5.25-11.1,6.03c-3.3,0.57-6.2,0.19-8.69-1.03c-5.09-2.5-6.16-8.01-2.56-13.17c3.43-4.92,10.66-8.04,16.72-7.24
					C42.7,18.27,46.55,23.05,44.28,29.12z M34.16,35.38c5.39-2.18,8.58-7.24,7.09-11.14c-1.47-3.84-7.03-5.51-12.73-3.29
					c-5.4,2.11-8.93,7.16-7.27,11.35C22.81,36.23,28.61,37.63,34.16,35.38z"/>
				<path class="st6" d="M45.72,29.34c0.84,0.13,1.79,0.28,2.74,0.42c3.48,0.53,6.89,1.18,10.25,1.93c0.89,0.2,1.71,0.48,2.42,0.91
					c0.89,0.55,1.06,1.41,0.46,2.38c-0.31,0.5-0.56,1.04-1.18,1.42c-0.61,0.37-1.25,0.61-1.94,0.64c-0.98,0.04-1.89-0.07-2.77-0.27
					c-4.21-0.99-8.25-2.21-12.26-3.49c-0.06-0.02-0.12-0.05-0.21-0.08C44.04,31.92,44.87,30.65,45.72,29.34z"/>
			</g>
		</g>
	</g>
	<path class="st6" d="M39.62,25.21c0.14,3.46-1.77,6.47-6,8.77c-0.31,0.17-0.62,0.36-0.93,0.04c-0.33-0.36-0.29-0.49,0.22-0.77
		c4.17-2.3,5.94-5.27,5.23-8.86c-0.42-2.08-1.88-3.74-4.15-4.99c-0.29-0.16-0.47-0.31-0.23-0.6c0.33-0.4,0.53-0.45,1.02-0.18
		C37.65,20.21,39.24,22.35,39.62,25.21z"/>
</g>
</svg>
